<?xml version="1.0" encoding="utf-8"?>
<svg version="1.1" width="256" height="256" viewBox="0 0 256 256" xmlns="http://www.w3.org/2000/svg">
  <g style="stroke: none; stroke-width: 0; stroke-dasharray: none; stroke-linecap: butt; stroke-linejoin: miter; stroke-miterlimit: 10; fill: none; fill-rule: nonzero; opacity: 1;" transform="translate(1.4065934065934016 1.4065934065934016) scale(2.81 2.81)">
    <polygon points="54.48,48.82 82.43,48.82 85.52,31.53 50.4,31.53 " style="stroke: none; stroke-width: 1; stroke-dasharray: none; stroke-linecap: butt; stroke-linejoin: miter; stroke-miterlimit: 10; fill-rule: nonzero; opacity: 1; fill: rgb(250, 84, 28);" transform="  matrix(1 0 0 1 0 0) "/>
    <circle cx="56.82" cy="60.31" r="2.47" style="stroke: none; stroke-width: 1; stroke-dasharray: none; stroke-linecap: butt; stroke-linejoin: miter; stroke-miterlimit: 10; fill-rule: nonzero; opacity: 1; fill: rgb(250, 84, 28);" transform="  matrix(1 0 0 1 0 0) "/>
    <circle cx="80.82" cy="60.31" r="2.47" style="stroke: none; stroke-width: 1; stroke-dasharray: none; stroke-linecap: butt; stroke-linejoin: miter; stroke-miterlimit: 10; fill-rule: nonzero; opacity: 1; fill: rgb(250, 84, 28);" transform="  matrix(1 0 0 1 0 0) "/>
    <path d="M 21.381 23.641 c -9.333 0 -16.9 7.566 -16.9 16.9 c 0 9.333 7.566 16.9 16.9 16.9 c 9.333 0 16.9 -7.566 16.9 -16.9 C 38.281 31.207 30.715 23.641 21.381 23.641 z M 21.381 52.261 c -6.473 0 -11.72 -5.247 -11.72 -11.72 s 5.247 -11.72 11.72 -11.72 s 11.72 5.247 11.72 11.72 S 27.854 52.261 21.381 52.261 z" style="stroke: none; stroke-width: 1; stroke-dasharray: none; stroke-linecap: butt; stroke-linejoin: miter; stroke-miterlimit: 10; fill-rule: nonzero; opacity: 1; fill: rgb(250, 84, 28);" transform=" matrix(1 0 0 1 0 0) " stroke-linecap="round"/>
    <path d="M 65.238 90 H 26.856 c -3.57 0 -6.475 -2.905 -6.475 -6.476 V 57.44 c 0 -0.553 0.448 -1 1 -1 s 1 0.447 1 1 v 26.084 c 0 2.468 2.007 4.476 4.475 4.476 h 38.382 c 2.468 0 4.475 -2.008 4.475 -4.476 V 53.822 c 0 -0.553 0.447 -1 1 -1 s 1 0.447 1 1 v 29.702 C 71.713 87.095 68.809 90 65.238 90 z" style="stroke: none; stroke-width: 1; stroke-dasharray: none; stroke-linecap: butt; stroke-linejoin: miter; stroke-miterlimit: 10; fill-rule: nonzero; opacity: 1; fill: rgb(250, 84, 28);" transform=" matrix(1 0 0 1 0 0) " stroke-linecap="round"/>
    <path d="M 70.713 32.534 c -0.553 0 -1 -0.448 -1 -1 V 6.476 C 69.713 4.008 67.706 2 65.238 2 H 26.856 c -2.468 0 -4.475 2.008 -4.475 4.476 v 17.166 c 0 0.552 -0.448 1 -1 1 s -1 -0.448 -1 -1 V 6.476 C 20.381 2.905 23.286 0 26.856 0 h 38.382 c 3.57 0 6.475 2.905 6.475 6.476 v 25.058 C 71.713 32.086 71.266 32.534 70.713 32.534 z" style="stroke: none; stroke-width: 1; stroke-dasharray: none; stroke-linecap: butt; stroke-linejoin: miter; stroke-miterlimit: 10; fill-rule: nonzero; opacity: 1; fill: rgb(250, 84, 28);" transform=" matrix(1 0 0 1 0 0) " stroke-linecap="round"/>
    <path d="M 54.814 8.561 H 37.28 c -4.169 0 -7.561 -3.392 -7.561 -7.561 c 0 -0.552 0.448 -1 1 -1 h 30.656 c 0.553 0 1 0.448 1 1 C 62.375 5.169 58.983 8.561 54.814 8.561 z M 31.809 2 c 0.473 2.59 2.746 4.561 5.471 4.561 h 17.535 c 2.725 0 4.998 -1.97 5.471 -4.561 H 31.809 z" style="stroke: none; stroke-width: 1; stroke-dasharray: none; stroke-linecap: butt; stroke-linejoin: miter; stroke-miterlimit: 10; fill-rule: nonzero; opacity: 1; fill: rgb(250, 84, 28);" transform=" matrix(1 0 0 1 0 0) " stroke-linecap="round"/>
    <path d="M 21.381 53.261 c -7.014 0 -12.72 -5.706 -12.72 -12.72 c 0 -7.014 5.706 -12.72 12.72 -12.72 c 2.429 0 4.79 0.687 6.829 1.987 c 0.466 0.297 0.603 0.915 0.306 1.381 s -0.916 0.603 -1.381 0.306 c -1.717 -1.095 -3.707 -1.673 -5.753 -1.673 c -5.911 0 -10.72 4.809 -10.72 10.72 c 0 5.912 4.809 10.72 10.72 10.72 c 5.911 0 10.72 -4.809 10.72 -10.72 c 0 -2.498 -0.878 -4.93 -2.472 -6.848 c -0.353 -0.425 -0.295 -1.055 0.13 -1.408 c 0.425 -0.353 1.056 -0.294 1.408 0.13 c 1.892 2.276 2.934 5.162 2.934 8.126 C 34.101 47.555 28.395 53.261 21.381 53.261 z" style="stroke: none; stroke-width: 1; stroke-dasharray: none; stroke-linecap: butt; stroke-linejoin: miter; stroke-miterlimit: 10; fill-rule: nonzero; opacity: 1; fill: rgb(250, 84, 28);" transform=" matrix(1 0 0 1 0 0) " stroke-linecap="round"/>
    <path d="M 21.381 58.44 c -9.87 0 -17.9 -8.03 -17.9 -17.9 s 8.03 -17.899 17.9 -17.899 c 9.87 0 17.899 8.03 17.899 17.899 S 31.251 58.44 21.381 58.44 z M 21.381 24.641 c -8.767 0 -15.9 7.132 -15.9 15.899 s 7.133 15.9 15.9 15.9 s 15.899 -7.133 15.899 -15.9 S 30.148 24.641 21.381 24.641 z" style="stroke: none; stroke-width: 1; stroke-dasharray: none; stroke-linecap: butt; stroke-linejoin: miter; stroke-miterlimit: 10; fill-rule: nonzero; opacity: 1; fill: rgb(250, 84, 28);" transform=" matrix(1 0 0 1 0 0) " stroke-linecap="round"/>
    <path d="M 21.959 46.718 c -3.406 0 -6.177 -2.771 -6.177 -6.177 s 2.771 -6.177 6.177 -6.177 c 1.536 0 3.008 0.567 4.146 1.598 c 0.409 0.371 0.44 1.003 0.07 1.413 c -0.37 0.409 -1.003 0.44 -1.413 0.07 c -0.77 -0.697 -1.765 -1.081 -2.804 -1.081 c -2.303 0 -4.177 1.874 -4.177 4.177 s 1.874 4.177 4.177 4.177 c 1.039 0 2.035 -0.384 2.804 -1.081 c 0.41 -0.371 1.042 -0.339 1.413 0.07 c 0.371 0.409 0.339 1.042 -0.07 1.413 C 24.968 46.149 23.496 46.718 21.959 46.718 z" style="stroke: none; stroke-width: 1; stroke-dasharray: none; stroke-linecap: butt; stroke-linejoin: miter; stroke-miterlimit: 10; fill-rule: nonzero; opacity: 1; fill: rgb(250, 84, 28);" transform=" matrix(1 0 0 1 0 0) " stroke-linecap="round"/>
    <path d="M 21.959 36.364 c -0.552 0 -1 -0.448 -1 -1 v -1.985 c 0 -0.552 0.448 -1 1 -1 s 1 0.448 1 1 v 1.985 C 22.959 35.916 22.512 36.364 21.959 36.364 z" style="stroke: none; stroke-width: 1; stroke-dasharray: none; stroke-linecap: butt; stroke-linejoin: miter; stroke-miterlimit: 10; fill-rule: nonzero; opacity: 1; fill: rgb(250, 84, 28);" transform=" matrix(1 0 0 1 0 0) " stroke-linecap="round"/>
    <path d="M 21.959 48.703 c -0.552 0 -1 -0.447 -1 -1 v -1.986 c 0 -0.552 0.448 -1 1 -1 s 1 0.448 1 1 v 1.986 C 22.959 48.256 22.512 48.703 21.959 48.703 z" style="stroke: none; stroke-width: 1; stroke-dasharray: none; stroke-linecap: butt; stroke-linejoin: miter; stroke-miterlimit: 10; fill-rule: nonzero; opacity: 1; fill: rgb(250, 84, 28);" transform=" matrix(1 0 0 1 0 0) " stroke-linecap="round"/>
    <path d="M 70.713 80.021 H 21.381 c -0.552 0 -1 -0.447 -1 -1 s 0.448 -1 1 -1 h 49.332 c 0.553 0 1 0.447 1 1 S 71.266 80.021 70.713 80.021 z" style="stroke: none; stroke-width: 1; stroke-dasharray: none; stroke-linecap: butt; stroke-linejoin: miter; stroke-miterlimit: 10; fill-rule: nonzero; opacity: 1; fill: rgb(250, 84, 28);" transform=" matrix(1 0 0 1 0 0) " stroke-linecap="round"/>
    <path d="M 50.907 85.01 h -9.72 c -0.552 0 -1 -0.447 -1 -1 s 0.448 -1 1 -1 h 9.72 c 0.553 0 1 0.447 1 1 S 51.46 85.01 50.907 85.01 z" style="stroke: none; stroke-width: 1; stroke-dasharray: none; stroke-linecap: butt; stroke-linejoin: miter; stroke-miterlimit: 10; fill-rule: nonzero; opacity: 1; fill: rgb(250, 84, 28);" transform=" matrix(1 0 0 1 0 0) " stroke-linecap="round"/>
    <path d="M 81.233 54.822 H 55.656 c -0.464 0 -0.867 -0.319 -0.974 -0.771 l -6.921 -29.355 h -5.081 c -0.552 0 -1 -0.448 -1 -1 s 0.448 -1 1 -1 h 5.873 c 0.464 0 0.867 0.319 0.974 0.771 l 6.921 29.355 h 24.785 c 0.553 0 1 0.447 1 1 S 81.786 54.822 81.233 54.822 z" style="stroke: none; stroke-width: 1; stroke-dasharray: none; stroke-linecap: butt; stroke-linejoin: miter; stroke-miterlimit: 10; fill-rule: nonzero; opacity: 1; fill: rgb(250, 84, 28);" transform=" matrix(1 0 0 1 0 0) " stroke-linecap="round"/>
    <path d="M 82.431 49.822 H 54.478 c -0.464 0 -0.867 -0.319 -0.974 -0.771 l -4.076 -17.289 c -0.069 -0.297 0 -0.611 0.189 -0.85 c 0.189 -0.24 0.479 -0.379 0.784 -0.379 h 35.117 c 0.296 0 0.577 0.131 0.767 0.358 c 0.19 0.227 0.27 0.526 0.218 0.818 l -3.088 17.289 C 83.33 49.475 82.915 49.822 82.431 49.822 z M 55.27 47.822 h 26.324 l 2.73 -15.289 H 51.665 L 55.27 47.822 z" style="stroke: none; stroke-width: 1; stroke-dasharray: none; stroke-linecap: butt; stroke-linejoin: miter; stroke-miterlimit: 10; fill-rule: nonzero; opacity: 1; fill: rgb(250, 84, 28);" transform=" matrix(1 0 0 1 0 0) " stroke-linecap="round"/>
    <path d="M 56.822 63.777 c -1.913 0 -3.47 -1.557 -3.47 -3.47 c 0 -1.914 1.557 -3.471 3.47 -3.471 s 3.47 1.557 3.47 3.471 C 60.292 62.221 58.735 63.777 56.822 63.777 z M 56.822 58.837 c -0.811 0 -1.47 0.66 -1.47 1.471 s 0.659 1.47 1.47 1.47 s 1.47 -0.659 1.47 -1.47 S 57.633 58.837 56.822 58.837 z" style="stroke: none; stroke-width: 1; stroke-dasharray: none; stroke-linecap: butt; stroke-linejoin: miter; stroke-miterlimit: 10; fill-rule: nonzero; opacity: 1; fill: rgb(250, 84, 28);" transform=" matrix(1 0 0 1 0 0) " stroke-linecap="round"/>
    <path d="M 80.822 63.777 c -1.913 0 -3.47 -1.557 -3.47 -3.47 c 0 -1.914 1.557 -3.471 3.47 -3.471 s 3.47 1.557 3.47 3.471 C 84.292 62.221 82.735 63.777 80.822 63.777 z M 80.822 58.837 c -0.811 0 -1.47 0.66 -1.47 1.471 s 0.659 1.47 1.47 1.47 s 1.47 -0.659 1.47 -1.47 S 81.633 58.837 80.822 58.837 z" style="stroke: none; stroke-width: 1; stroke-dasharray: none; stroke-linecap: butt; stroke-linejoin: miter; stroke-miterlimit: 10; fill-rule: nonzero; opacity: 1; fill: rgb(250, 84, 28);" transform=" matrix(1 0 0 1 0 0) " stroke-linecap="round"/>
  </g>
</svg>