<?xml version="1.0" encoding="utf-8"?>
<svg version="1.1" width="256" height="256" viewBox="0 0 256 256" xmlns="http://www.w3.org/2000/svg">
  <g style="stroke: none; stroke-width: 0; stroke-dasharray: none; stroke-linecap: butt; stroke-linejoin: miter; stroke-miterlimit: 10; fill: none; fill-rule: nonzero; opacity: 1;" transform="translate(1.4065934065934016 1.4065934065934016) scale(2.81 2.81)">
    <polygon points="62.45,31.16 87,31.16 84.84,43.24 64.94,43.24 " style="stroke: none; stroke-width: 1; stroke-dasharray: none; stroke-linecap: butt; stroke-linejoin: miter; stroke-miterlimit: 10; fill-rule: nonzero; opacity: 1; fill: rgb(250, 84, 28);" transform="  matrix(1 0 0 1 0 0) "/>
    <circle cx="66.94" cy="54.27" r="2" style="stroke: none; stroke-width: 1; stroke-dasharray: none; stroke-linecap: butt; stroke-linejoin: miter; stroke-miterlimit: 10; fill-rule: nonzero; opacity: 1; fill: rgb(250, 84, 28);" transform="  matrix(1 0 0 1 0 0) "/>
    <circle cx="83.72" cy="54.27" r="2" style="stroke: none; stroke-width: 1; stroke-dasharray: none; stroke-linecap: butt; stroke-linejoin: miter; stroke-miterlimit: 10; fill-rule: nonzero; opacity: 1; fill: rgb(250, 84, 28);" transform="  matrix(1 0 0 1 0 0) "/>
    <path d="M 17.153 25.68 c -8.57 0 -15.517 6.947 -15.517 15.517 c 0 8.57 6.947 15.517 15.517 15.517 c 8.57 0 15.517 -6.947 15.517 -15.517 C 32.67 32.627 25.723 25.68 17.153 25.68 z M 17.153 51.957 c -5.943 0 -10.76 -4.818 -10.76 -10.76 c 0 -5.943 4.818 -10.76 10.76 -10.76 s 10.76 4.818 10.76 10.76 C 27.914 47.139 23.096 51.957 17.153 51.957 z" style="stroke: none; stroke-width: 1; stroke-dasharray: none; stroke-linecap: butt; stroke-linejoin: miter; stroke-miterlimit: 10; fill-rule: nonzero; opacity: 1; fill: rgb(250, 84, 28);" transform=" matrix(1 0 0 1 0 0) " stroke-linecap="round"/>
    <path d="M 83.061 67.687 H 7.407 c -0.552 0 -1 -0.447 -1 -1 V 53.268 c 0 -0.553 0.448 -1 1 -1 s 1 0.447 1 1 v 12.419 h 73.653 v -9.532 c 0 -0.553 0.447 -1 1 -1 s 1 0.447 1 1 v 10.532 C 84.061 67.239 83.613 67.687 83.061 67.687 z" style="stroke: none; stroke-width: 1; stroke-dasharray: none; stroke-linecap: butt; stroke-linejoin: miter; stroke-miterlimit: 10; fill-rule: nonzero; opacity: 1; fill: rgb(250, 84, 28);" transform=" matrix(1 0 0 1 0 0) " stroke-linecap="round"/>
    <path d="M 83.061 32.158 c -0.553 0 -1 -0.448 -1 -1 V 16.184 c 0 -1.833 -1.491 -3.325 -3.325 -3.325 H 11.732 c -1.833 0 -3.325 1.492 -3.325 3.325 v 12.941 c 0 0.552 -0.448 1 -1 1 s -1 -0.448 -1 -1 V 16.184 c 0 -2.936 2.389 -5.325 5.325 -5.325 h 67.003 c 2.937 0 5.325 2.389 5.325 5.325 v 14.974 C 84.061 31.71 83.613 32.158 83.061 32.158 z" style="stroke: none; stroke-width: 1; stroke-dasharray: none; stroke-linecap: butt; stroke-linejoin: miter; stroke-miterlimit: 10; fill-rule: nonzero; opacity: 1; fill: rgb(250, 84, 28);" transform=" matrix(1 0 0 1 0 0) " stroke-linecap="round"/>
    <path d="M 80.234 79.141 H 9.766 C 4.381 79.141 0 74.76 0 69.374 v -2.688 c 0 -0.553 0.448 -1 1 -1 h 88 c 0.553 0 1 0.447 1 1 v 2.688 C 90 74.76 85.619 79.141 80.234 79.141 z M 2 67.687 v 1.688 c 0 4.282 3.484 7.767 7.766 7.767 h 70.468 c 4.282 0 7.766 -3.484 7.766 -7.767 v -1.688 H 2 z" style="stroke: none; stroke-width: 1; stroke-dasharray: none; stroke-linecap: butt; stroke-linejoin: miter; stroke-miterlimit: 10; fill-rule: nonzero; opacity: 1; fill: rgb(250, 84, 28);" transform=" matrix(1 0 0 1 0 0) " stroke-linecap="round"/>
    <path d="M 48.992 73.413 H 38.239 c -0.552 0 -1 -0.447 -1 -1 s 0.448 -1 1 -1 h 10.753 c 0.553 0 1 0.447 1 1 S 49.545 73.413 48.992 73.413 z" style="stroke: none; stroke-width: 1; stroke-dasharray: none; stroke-linecap: butt; stroke-linejoin: miter; stroke-miterlimit: 10; fill-rule: nonzero; opacity: 1; fill: rgb(250, 84, 28);" transform=" matrix(1 0 0 1 0 0) " stroke-linecap="round"/>
    <path d="M 84.004 49.74 h -17.88 c -0.471 0 -0.879 -0.329 -0.978 -0.789 L 60.352 26.68 h -3.298 c -0.553 0 -1 -0.448 -1 -1 s 0.447 -1 1 -1 h 4.105 c 0.471 0 0.879 0.329 0.978 0.79 l 4.795 22.271 h 17.072 c 0.553 0 1 0.447 1 1 S 84.557 49.74 84.004 49.74 z" style="stroke: none; stroke-width: 1; stroke-dasharray: none; stroke-linecap: butt; stroke-linejoin: miter; stroke-miterlimit: 10; fill-rule: nonzero; opacity: 1; fill: rgb(250, 84, 28);" transform=" matrix(1 0 0 1 0 0) " stroke-linecap="round"/>
    <path d="M 84.842 44.245 h -19.9 c -0.475 0 -0.884 -0.333 -0.979 -0.798 L 61.471 31.36 c -0.061 -0.294 0.015 -0.6 0.204 -0.833 c 0.19 -0.233 0.475 -0.368 0.775 -0.368 H 87 c 0.296 0 0.577 0.131 0.767 0.358 c 0.19 0.227 0.27 0.526 0.218 0.818 L 85.826 43.42 C 85.741 43.897 85.326 44.245 84.842 44.245 z M 65.756 42.245 h 18.249 l 1.801 -10.086 H 63.678 L 65.756 42.245 z" style="stroke: none; stroke-width: 1; stroke-dasharray: none; stroke-linecap: butt; stroke-linejoin: miter; stroke-miterlimit: 10; fill-rule: nonzero; opacity: 1; fill: rgb(250, 84, 28);" transform=" matrix(1 0 0 1 0 0) " stroke-linecap="round"/>
    <path d="M 66.939 57.273 c -1.654 0 -3 -1.346 -3 -3 s 1.346 -3 3 -3 s 3 1.346 3 3 S 68.594 57.273 66.939 57.273 z M 66.939 53.273 c -0.552 0 -1 0.448 -1 1 s 0.448 1 1 1 s 1 -0.448 1 -1 S 67.491 53.273 66.939 53.273 z" style="stroke: none; stroke-width: 1; stroke-dasharray: none; stroke-linecap: butt; stroke-linejoin: miter; stroke-miterlimit: 10; fill-rule: nonzero; opacity: 1; fill: rgb(250, 84, 28);" transform=" matrix(1 0 0 1 0 0) " stroke-linecap="round"/>
    <path d="M 83.717 57.273 c -1.654 0 -3 -1.346 -3 -3 s 1.346 -3 3 -3 s 3 1.346 3 3 S 85.371 57.273 83.717 57.273 z M 83.717 53.273 c -0.552 0 -1 0.448 -1 1 s 0.448 1 1 1 s 1 -0.448 1 -1 S 84.269 53.273 83.717 53.273 z" style="stroke: none; stroke-width: 1; stroke-dasharray: none; stroke-linecap: butt; stroke-linejoin: miter; stroke-miterlimit: 10; fill-rule: nonzero; opacity: 1; fill: rgb(250, 84, 28);" transform=" matrix(1 0 0 1 0 0) " stroke-linecap="round"/>
    <path d="M 57.054 32.425 H 43.638 c -0.552 0 -1 -0.448 -1 -1 s 0.448 -1 1 -1 h 13.416 c 0.553 0 1 0.448 1 1 S 57.606 32.425 57.054 32.425 z" style="stroke: none; stroke-width: 1; stroke-dasharray: none; stroke-linecap: butt; stroke-linejoin: miter; stroke-miterlimit: 10; fill-rule: nonzero; opacity: 1; fill: rgb(250, 84, 28);" transform=" matrix(1 0 0 1 0 0) " stroke-linecap="round"/>
    <path d="M 59.477 44.485 H 48.941 c -0.553 0 -1 -0.448 -1 -1 s 0.447 -1 1 -1 h 10.535 c 0.553 0 1 0.448 1 1 S 60.029 44.485 59.477 44.485 z" style="stroke: none; stroke-width: 1; stroke-dasharray: none; stroke-linecap: butt; stroke-linejoin: miter; stroke-miterlimit: 10; fill-rule: nonzero; opacity: 1; fill: rgb(250, 84, 28);" transform=" matrix(1 0 0 1 0 0) " stroke-linecap="round"/>
    <path d="M 58.153 38.455 H 39.328 c -0.552 0 -1 -0.448 -1 -1 s 0.448 -1 1 -1 h 18.825 c 0.553 0 1 0.448 1 1 S 58.706 38.455 58.153 38.455 z" style="stroke: none; stroke-width: 1; stroke-dasharray: none; stroke-linecap: butt; stroke-linejoin: miter; stroke-miterlimit: 10; fill-rule: nonzero; opacity: 1; fill: rgb(250, 84, 28);" transform=" matrix(1 0 0 1 0 0) " stroke-linecap="round"/>
    <path d="M 17.153 52.957 c -6.485 0 -11.761 -5.275 -11.761 -11.761 c 0 -6.485 5.276 -11.761 11.761 -11.761 c 2.245 0 4.428 0.635 6.314 1.837 c 0.465 0.297 0.603 0.915 0.306 1.381 c -0.296 0.465 -0.915 0.604 -1.381 0.306 c -1.564 -0.997 -3.375 -1.523 -5.239 -1.523 c -5.382 0 -9.761 4.378 -9.761 9.761 c 0 5.382 4.378 9.761 9.761 9.761 s 9.761 -4.379 9.761 -9.761 c 0 -2.275 -0.799 -4.489 -2.25 -6.235 c -0.353 -0.425 -0.295 -1.055 0.13 -1.408 c 0.424 -0.353 1.055 -0.295 1.408 0.13 c 1.749 2.104 2.712 4.772 2.712 7.513 C 28.914 47.682 23.638 52.957 17.153 52.957 z" style="stroke: none; stroke-width: 1; stroke-dasharray: none; stroke-linecap: butt; stroke-linejoin: miter; stroke-miterlimit: 10; fill-rule: nonzero; opacity: 1; fill: rgb(250, 84, 28);" transform=" matrix(1 0 0 1 0 0) " stroke-linecap="round"/>
    <path d="M 17.153 57.713 c -9.107 0 -16.517 -7.409 -16.517 -16.517 S 8.045 24.68 17.153 24.68 s 16.517 7.409 16.517 16.517 S 26.26 57.713 17.153 57.713 z M 17.153 26.68 c -8.004 0 -14.517 6.512 -14.517 14.517 c 0 8.005 6.512 14.517 14.517 14.517 s 14.517 -6.512 14.517 -14.517 C 31.669 33.192 25.157 26.68 17.153 26.68 z" style="stroke: none; stroke-width: 1; stroke-dasharray: none; stroke-linecap: butt; stroke-linejoin: miter; stroke-miterlimit: 10; fill-rule: nonzero; opacity: 1; fill: rgb(250, 84, 28);" transform=" matrix(1 0 0 1 0 0) " stroke-linecap="round"/>
    <path d="M 17.684 46.949 c -3.172 0 -5.753 -2.581 -5.753 -5.753 s 2.581 -5.753 5.753 -5.753 c 1.432 0 2.803 0.529 3.862 1.489 c 0.409 0.371 0.44 1.003 0.069 1.413 c -0.37 0.408 -1.003 0.44 -1.413 0.069 c -0.69 -0.626 -1.585 -0.971 -2.519 -0.971 c -2.069 0 -3.753 1.684 -3.753 3.753 s 1.684 3.753 3.753 3.753 c 0.934 0 1.828 -0.345 2.519 -0.971 c 0.409 -0.371 1.041 -0.339 1.413 0.07 c 0.371 0.409 0.339 1.042 -0.07 1.413 C 20.487 46.421 19.115 46.949 17.684 46.949 z" style="stroke: none; stroke-width: 1; stroke-dasharray: none; stroke-linecap: butt; stroke-linejoin: miter; stroke-miterlimit: 10; fill-rule: nonzero; opacity: 1; fill: rgb(250, 84, 28);" transform=" matrix(1 0 0 1 0 0) " stroke-linecap="round"/>
    <path d="M 17.684 37.443 c -0.552 0 -1 -0.448 -1 -1 V 34.62 c 0 -0.552 0.448 -1 1 -1 s 1 0.448 1 1 v 1.823 C 18.684 36.996 18.236 37.443 17.684 37.443 z" style="stroke: none; stroke-width: 1; stroke-dasharray: none; stroke-linecap: butt; stroke-linejoin: miter; stroke-miterlimit: 10; fill-rule: nonzero; opacity: 1; fill: rgb(250, 84, 28);" transform=" matrix(1 0 0 1 0 0) " stroke-linecap="round"/>
    <path d="M 17.684 48.772 c -0.552 0 -1 -0.447 -1 -1 v -1.823 c 0 -0.552 0.448 -1 1 -1 s 1 0.448 1 1 v 1.823 C 18.684 48.325 18.236 48.772 17.684 48.772 z" style="stroke: none; stroke-width: 1; stroke-dasharray: none; stroke-linecap: butt; stroke-linejoin: miter; stroke-miterlimit: 10; fill-rule: nonzero; opacity: 1; fill: rgb(250, 84, 28);" transform=" matrix(1 0 0 1 0 0) " stroke-linecap="round"/>
  </g>
</svg>