<?xml version="1.0" encoding="utf-8"?>
<svg version="1.1" width="256" height="256" viewBox="0 0 256 256" xmlns="http://www.w3.org/2000/svg">
  <g style="stroke: none; stroke-width: 0; stroke-dasharray: none; stroke-linecap: butt; stroke-linejoin: miter; stroke-miterlimit: 10; fill: none; fill-rule: nonzero; opacity: 1;" transform="translate(1.4065934065934016 1.4065934065934016) scale(2.81 2.81)">
    <path d="M 45 22.696 c -9.557 0 -17.304 7.747 -17.304 17.304 S 35.443 57.304 45 57.304 S 62.304 49.557 62.304 40 S 54.557 22.696 45 22.696 z M 45 52 c -6.627 0 -12 -5.373 -12 -12 c 0 -6.627 5.373 -12 12 -12 s 12 5.373 12 12 C 57 46.627 51.627 52 45 52 z" style="stroke: none; stroke-width: 1; stroke-dasharray: none; stroke-linecap: butt; stroke-linejoin: miter; stroke-miterlimit: 10; fill-rule: nonzero; opacity: 1; fill: rgb(250, 84, 28);" transform=" matrix(1 0 0 1 0 0) " stroke-linecap="round"/>
    <path d="M 83.061 67.687 H 7.407 c -0.552 0 -1 -0.447 -1 -1 V 16.184 c 0 -2.936 2.389 -5.325 5.325 -5.325 h 67.003 c 2.937 0 5.325 2.389 5.325 5.325 v 50.502 C 84.061 67.239 83.613 67.687 83.061 67.687 z M 8.407 65.687 h 73.653 V 16.184 c 0 -1.833 -1.491 -3.325 -3.325 -3.325 H 11.732 c -1.833 0 -3.325 1.492 -3.325 3.325 V 65.687 z" style="stroke: none; stroke-width: 1; stroke-dasharray: none; stroke-linecap: butt; stroke-linejoin: miter; stroke-miterlimit: 10; fill-rule: nonzero; opacity: 1; fill: rgb(250, 84, 28);" transform=" matrix(1 0 0 1 0 0) " stroke-linecap="round"/>
    <path d="M 80.234 79.141 H 9.766 C 4.381 79.141 0 74.76 0 69.374 v -2.688 c 0 -0.553 0.448 -1 1 -1 h 88 c 0.553 0 1 0.447 1 1 v 2.688 C 90 74.76 85.619 79.141 80.234 79.141 z M 2 67.687 v 1.688 c 0 4.282 3.484 7.767 7.766 7.767 h 70.468 c 4.282 0 7.766 -3.484 7.766 -7.767 v -1.688 H 2 z" style="stroke: none; stroke-width: 1; stroke-dasharray: none; stroke-linecap: butt; stroke-linejoin: miter; stroke-miterlimit: 10; fill-rule: nonzero; opacity: 1; fill: rgb(250, 84, 28);" transform=" matrix(1 0 0 1 0 0) " stroke-linecap="round"/>
    <path d="M 48.992 73.413 H 38.239 c -0.552 0 -1 -0.447 -1 -1 s 0.448 -1 1 -1 h 10.753 c 0.553 0 1 0.447 1 1 S 49.545 73.413 48.992 73.413 z" style="stroke: none; stroke-width: 1; stroke-dasharray: none; stroke-linecap: butt; stroke-linejoin: miter; stroke-miterlimit: 10; fill-rule: nonzero; opacity: 1; fill: rgb(250, 84, 28);" transform=" matrix(1 0 0 1 0 0) " stroke-linecap="round"/>
    <path d="M 45 53 c -7.168 0 -13 -5.832 -13 -13 c 0 -7.168 5.832 -13 13 -13 c 2.482 0 4.896 0.702 6.979 2.031 c 0.465 0.297 0.602 0.916 0.305 1.381 c -0.297 0.466 -0.913 0.603 -1.381 0.306 C 49.143 29.594 47.101 29 45 29 c -6.065 0 -11 4.935 -11 11 s 4.935 11 11 11 s 11 -4.935 11 -11 c 0 -2.564 -0.9 -5.059 -2.536 -7.027 c -0.354 -0.424 -0.296 -1.055 0.129 -1.408 c 0.426 -0.354 1.056 -0.295 1.408 0.13 C 56.936 34.021 58 36.97 58 40 C 58 47.168 52.168 53 45 53 z" style="stroke: none; stroke-width: 1; stroke-dasharray: none; stroke-linecap: butt; stroke-linejoin: miter; stroke-miterlimit: 10; fill-rule: nonzero; opacity: 1; fill: rgb(250, 84, 28);" transform=" matrix(1 0 0 1 0 0) " stroke-linecap="round"/>
    <path d="M 45 58.304 c -10.093 0 -18.304 -8.211 -18.304 -18.304 S 34.907 21.696 45 21.696 S 63.304 29.907 63.304 40 S 55.093 58.304 45 58.304 z M 45 23.696 c -8.99 0 -16.304 7.314 -16.304 16.304 c 0 8.99 7.314 16.304 16.304 16.304 c 8.99 0 16.304 -7.313 16.304 -16.304 C 61.304 31.01 53.99 23.696 45 23.696 z" style="stroke: none; stroke-width: 1; stroke-dasharray: none; stroke-linecap: butt; stroke-linejoin: miter; stroke-miterlimit: 10; fill-rule: nonzero; opacity: 1; fill: rgb(250, 84, 28);" transform=" matrix(1 0 0 1 0 0) " stroke-linecap="round"/>
    <path d="M 45.592 46.3 c -3.474 0 -6.3 -2.826 -6.3 -6.3 s 2.826 -6.3 6.3 -6.3 c 1.567 0 3.07 0.579 4.23 1.63 c 0.409 0.371 0.44 1.003 0.069 1.413 c -0.372 0.41 -1.004 0.439 -1.413 0.07 c -0.791 -0.717 -1.816 -1.112 -2.886 -1.112 c -2.371 0 -4.3 1.929 -4.3 4.3 s 1.929 4.3 4.3 4.3 c 1.07 0 2.095 -0.395 2.886 -1.112 c 0.408 -0.372 1.042 -0.339 1.413 0.069 c 0.37 0.409 0.34 1.042 -0.069 1.413 C 48.662 45.721 47.16 46.3 45.592 46.3 z" style="stroke: none; stroke-width: 1; stroke-dasharray: none; stroke-linecap: butt; stroke-linejoin: miter; stroke-miterlimit: 10; fill-rule: nonzero; opacity: 1; fill: rgb(250, 84, 28);" transform=" matrix(1 0 0 1 0 0) " stroke-linecap="round"/>
    <path d="M 45.592 35.7 c -0.552 0 -1 -0.448 -1 -1 v -2.033 c 0 -0.552 0.448 -1 1 -1 s 1 0.448 1 1 V 34.7 C 46.592 35.252 46.145 35.7 45.592 35.7 z" style="stroke: none; stroke-width: 1; stroke-dasharray: none; stroke-linecap: butt; stroke-linejoin: miter; stroke-miterlimit: 10; fill-rule: nonzero; opacity: 1; fill: rgb(250, 84, 28);" transform=" matrix(1 0 0 1 0 0) " stroke-linecap="round"/>
    <path d="M 45.592 48.333 c -0.552 0 -1 -0.447 -1 -1 V 45.3 c 0 -0.552 0.448 -1 1 -1 s 1 0.448 1 1 v 2.033 C 46.592 47.886 46.145 48.333 45.592 48.333 z" style="stroke: none; stroke-width: 1; stroke-dasharray: none; stroke-linecap: butt; stroke-linejoin: miter; stroke-miterlimit: 10; fill-rule: nonzero; opacity: 1; fill: rgb(250, 84, 28);" transform=" matrix(1 0 0 1 0 0) " stroke-linecap="round"/>
    <path d="M 77.044 23.696 H 59.956 c -0.553 0 -1 -0.448 -1 -1 s 0.447 -1 1 -1 h 17.088 c 0.553 0 1 0.448 1 1 S 77.597 23.696 77.044 23.696 z" style="stroke: none; stroke-width: 1; stroke-dasharray: none; stroke-linecap: butt; stroke-linejoin: miter; stroke-miterlimit: 10; fill-rule: nonzero; opacity: 1; fill: rgb(250, 84, 28);" transform=" matrix(1 0 0 1 0 0) " stroke-linecap="round"/>
    <path d="M 73.237 27.503 c -0.256 0 -0.512 -0.098 -0.707 -0.293 c -0.391 -0.39 -0.391 -1.023 0 -1.414 l 3.1 -3.1 l -3.1 -3.1 c -0.391 -0.391 -0.391 -1.023 0 -1.414 s 1.023 -0.391 1.414 0 l 3.807 3.807 c 0.391 0.391 0.391 1.023 0 1.414 l -3.807 3.807 C 73.749 27.406 73.493 27.503 73.237 27.503 z" style="stroke: none; stroke-width: 1; stroke-dasharray: none; stroke-linecap: butt; stroke-linejoin: miter; stroke-miterlimit: 10; fill-rule: nonzero; opacity: 1; fill: rgb(250, 84, 28);" transform=" matrix(1 0 0 1 0 0) " stroke-linecap="round"/>
    <path d="M 30.044 58.304 H 12.956 c -0.552 0 -1 -0.447 -1 -1 s 0.448 -1 1 -1 h 17.088 c 0.552 0 1 0.447 1 1 S 30.596 58.304 30.044 58.304 z" style="stroke: none; stroke-width: 1; stroke-dasharray: none; stroke-linecap: butt; stroke-linejoin: miter; stroke-miterlimit: 10; fill-rule: nonzero; opacity: 1; fill: rgb(250, 84, 28);" transform=" matrix(1 0 0 1 0 0) " stroke-linecap="round"/>
    <path d="M 16.763 62.11 c -0.256 0 -0.512 -0.098 -0.707 -0.293 l -3.807 -3.807 c -0.391 -0.391 -0.391 -1.023 0 -1.414 l 3.807 -3.807 c 0.391 -0.391 1.023 -0.391 1.414 0 s 0.391 1.023 0 1.414 l -3.1 3.1 l 3.1 3.1 c 0.391 0.391 0.391 1.023 0 1.414 C 17.274 62.013 17.019 62.11 16.763 62.11 z" style="stroke: none; stroke-width: 1; stroke-dasharray: none; stroke-linecap: butt; stroke-linejoin: miter; stroke-miterlimit: 10; fill-rule: nonzero; opacity: 1; fill: rgb(250, 84, 28);" transform=" matrix(1 0 0 1 0 0) " stroke-linecap="round"/>
  </g>
</svg>